<?xml version="1.0" encoding="utf-8"?>
<!-- Uploaded to: SVG Repo, www.svgrepo.com, Generator: SVG Repo Mixer Tools -->
<!DOCTYPE svg PUBLIC "-//W3C//DTD SVG 1.1//EN" "http://www.w3.org/Graphics/SVG/1.1/DTD/svg11.dtd">
<svg xmlns="http://www.w3.org/2000/svg" xmlns:xlink="http://www.w3.org/1999/xlink" version="1.1" id="Layer_1"  width="512" height="512" viewBox="0 0 512 512" enable-background="new 0 0 512 512" xml:space="preserve">
<g id="pie">
	<path fill="#F4BE8E" d="M494.825,138.314C471.936,83.05,428.905,40.02,373.64,17.129C346.25,5.786,317.438,0.036,288.032,0.036   c-43.765,0-86.311,12.719-123.028,36.796c-37.625,24.672-66.64,59.765-83.936,101.482c-11.562,27.922-17.312,57.28-17.093,87.264   c0.218,28.953,5.968,57.249,17.093,84.108l4.125,9.953l9.906-4.203c6.25-2.672,12.859-5.469,19.719-8.375   C102.739,281.921,95.974,253.75,95.974,224c0-106.029,85.952-191.981,191.98-191.981c106.029,0,191.98,85.952,191.98,191.981   c0,106.029-85.951,191.981-191.98,191.981c-29.765,0-57.936-6.766-83.076-18.859c-2.875,6.812-5.672,13.422-8.359,19.749   l-4.188,9.891l9.922,4.109c27.406,11.344,56.202,17.109,85.607,17.109c0,0,0,0,0.016,0c43.75,0,86.295-12.734,123.014-36.796   c37.624-24.671,66.654-59.765,83.936-101.498C517.716,254.438,517.716,193.579,494.825,138.314z"/>
	<path fill="#EC5564" d="M287.954,405.31c-24.062,0-47.28-4.594-69.186-13.656c21.641-51.233,47.812-113.622,60.686-145.325   c1.609-3.984,0.688-8.531-2.344-11.562c-2.031-2.031-4.766-3.125-7.547-3.125c-1.343,0-2.702,0.266-3.999,0.781   c-32.062,12.984-94.311,39.141-145.279,60.733c-9.062-21.89-13.656-45.108-13.656-69.155c0-48.421,18.859-93.952,53.108-128.201   c34.249-34.249,79.78-53.108,128.216-53.108c48.422,0,93.951,18.859,128.201,53.108c34.249,34.249,53.108,79.78,53.108,128.201   c0,48.437-18.859,93.967-53.108,128.216C381.905,386.467,336.376,405.31,287.954,405.31z"/>
	<path fill="#D94452" d="M287.954,32.02c-106.029,0-191.98,85.952-191.98,191.981c0,29.75,6.766,57.92,18.844,83.061   c53.092-22.531,120.982-51.077,154.746-64.749c-13.577,33.469-41.702,100.436-64.686,154.81   c25.14,12.094,53.312,18.859,83.076,18.859c106.029,0,191.98-85.952,191.98-191.981C479.935,117.971,393.983,32.02,287.954,32.02z    M408.624,344.67c-15.688,15.672-33.938,27.984-54.249,36.578c-21.03,8.891-43.374,13.405-66.421,13.405   c-19,0-37.437-3.031-55.045-9.062c20.718-49.094,44.374-105.576,56.42-135.264c3.234-7.938,1.391-17.031-4.672-23.093   c-4.078-4.078-9.531-6.25-15.094-6.25c-2.687,0-5.405,0.5-7.999,1.547c-30,12.156-86.342,35.812-135.216,56.468   c-6.016-17.594-9.047-36.016-9.047-55c0-23.046,4.516-45.39,13.406-66.405c8.594-20.328,20.89-38.578,36.577-54.265   c15.672-15.672,33.937-27.984,54.249-36.578c21.031-8.89,43.375-13.39,66.42-13.39c23.047,0,45.391,4.5,66.421,13.39   c20.312,8.594,38.562,20.906,54.249,36.593c15.672,15.671,27.984,33.921,36.578,54.249c8.89,21.015,13.39,43.358,13.39,66.405   s-4.5,45.406-13.39,66.42C436.608,310.733,424.296,328.998,408.624,344.67z"/>
	<path fill="#D89766" d="M298.595,0.286c-3.5-0.172-7.031-0.25-10.562-0.25c-3.594,0-7.172,0.094-10.734,0.266   c0.141,5.766,4.844,10.391,10.656,10.391C293.751,10.692,298.47,6.052,298.595,0.286z"/>
	<path fill="#D89766" d="M287.954,437.309c-5.812,0-10.516,4.641-10.656,10.406c3.516,0.172,7.031,0.266,10.562,0.266   c0,0,0,0,0.016,0c3.578,0,7.156-0.094,10.719-0.266C298.454,441.949,293.751,437.309,287.954,437.309z"/>
	<path fill="#D89766" d="M240.331,5.146c-3.438,0.75-6.859,1.578-10.266,2.5c-3.469,0.922-6.906,1.938-10.312,3.031   c1.641,5.531,7.391,8.781,12.984,7.281C238.346,16.458,241.706,10.755,240.331,5.146z"/>
	<path fill="#D89766" d="M343.157,430.043c-5.609,1.5-8.953,7.203-7.594,12.812c3.438-0.734,6.859-1.578,10.28-2.484l0,0   c3.469-0.938,6.891-1.953,10.297-3.031C354.516,431.809,348.766,428.543,343.157,430.043z"/>
	<path fill="#D89766" d="M185.316,24.926c-3.125,1.625-6.219,3.296-9.281,5.062c-3.109,1.797-6.156,3.672-9.172,5.609   c3.016,4.922,9.406,6.578,14.438,3.672C186.316,36.379,188.082,30.004,185.316,24.926z"/>
	<path fill="#D89766" d="M394.608,408.731c-5.031,2.906-6.797,9.28-4.016,14.343c3.125-1.609,6.219-3.297,9.266-5.062   c0,0,0,0,0.016,0c3.094-1.797,6.156-3.671,9.156-5.593C406.03,407.497,399.624,405.841,394.608,408.731z"/>
	<path fill="#D89766" d="M137.286,58.285c-2.594,2.359-5.156,4.797-7.656,7.281c-2.531,2.547-5,5.141-7.406,7.781   c4.188,3.984,10.797,3.921,14.891-0.172C141.223,69.066,141.27,62.457,137.286,58.285z"/>
	<path fill="#D89766" d="M438.78,374.842c-4.094,4.094-4.156,10.719-0.172,14.891c2.609-2.359,5.156-4.797,7.656-7.297l0,0   c2.546-2.531,4.999-5.125,7.405-7.781C449.498,370.686,442.89,370.732,438.78,374.842z"/>
	<path fill="#D89766" d="M99.521,102.925c-1.891,2.953-3.734,5.969-5.5,9.016c-1.797,3.109-3.5,6.265-5.14,9.437   c5.062,2.766,11.437,1,14.343-4.031C106.114,112.331,104.458,105.925,99.521,102.925z"/>
	<path fill="#D89766" d="M472.686,330.654c-2.906,5.031-1.25,11.438,3.687,14.438c1.906-2.969,3.734-5.969,5.5-9.031l0,0   c1.797-3.109,3.5-6.25,5.141-9.438C481.95,323.873,475.575,325.623,472.686,330.654z"/>
	<path fill="#D89766" d="M74.615,155.814c-1.078,3.344-2.078,6.734-2.984,10.141c-0.938,3.468-1.766,6.953-2.531,10.437   c5.609,1.359,11.312-1.984,12.812-7.594C83.412,163.189,80.146,157.439,74.615,155.814z"/>
	<path fill="#D89766" d="M493.997,279.219c-1.5,5.593,1.75,11.343,7.297,12.968c1.062-3.344,2.062-6.719,2.984-10.125l0,0   c0.922-3.468,1.75-6.952,2.516-10.437C501.185,270.266,495.497,273.609,493.997,279.219z"/>
	<path fill="#D89766" d="M64.224,213.36c-0.156,3.5-0.25,7.031-0.25,10.562c0,3.594,0.093,7.171,0.265,10.734   c5.766-0.141,10.406-4.843,10.406-10.656C74.646,218.204,70.005,213.485,64.224,213.36z"/>
	<path fill="#D89766" d="M501.263,224c0,5.812,4.641,10.515,10.406,10.656c0.172-3.516,0.266-7.031,0.266-10.562l0,0   c0-3.594-0.109-7.171-0.266-10.734C505.888,213.501,501.263,218.204,501.263,224z"/>
	<path fill="#D89766" d="M69.099,271.625c0.75,3.438,1.578,6.844,2.484,10.265c0.938,3.469,1.953,6.891,3.031,10.297   c5.531-1.625,8.797-7.375,7.297-12.968C80.412,273.609,74.708,270.266,69.099,271.625z"/>
	<path fill="#D89766" d="M493.997,168.798c1.5,5.609,7.203,8.953,12.812,7.594c-0.75-3.438-1.578-6.859-2.5-10.265   c0-0.016,0,0,0-0.016c-0.922-3.453-1.938-6.891-3.031-10.297C495.747,157.439,492.497,163.189,493.997,168.798z"/>
	<path fill="#D89766" d="M472.686,117.346c2.905,5.031,9.28,6.797,14.343,4.031c-1.609-3.125-3.297-6.218-5.062-9.281l0,0   c-1.797-3.109-3.672-6.156-5.594-9.172C471.436,105.94,469.779,112.331,472.686,117.346z"/>
	<path fill="#D89766" d="M438.78,73.175c4.109,4.109,10.718,4.156,14.905,0.172c-2.375-2.609-4.797-5.156-7.296-7.656l0,0   c-2.547-2.531-5.141-5-7.781-7.406C434.624,62.473,434.687,69.066,438.78,73.175z"/>
	<path fill="#D89766" d="M394.608,39.27c5.031,2.906,11.422,1.25,14.422-3.688c-2.953-1.891-5.953-3.734-9.016-5.5l0,0   c-3.109-1.797-6.266-3.5-9.438-5.14C387.827,30.004,389.577,36.379,394.608,39.27z"/>
	<path fill="#D89766" d="M219.752,437.34c3.359,1.078,6.734,2.062,10.156,2.984c3.453,0.922,6.938,1.766,10.438,2.516   c1.344-5.594-2-11.297-7.609-12.797C227.143,428.543,221.377,431.809,219.752,437.34z"/>
	<path fill="#D89766" d="M343.157,17.958c5.608,1.516,11.358-1.75,12.983-7.296c-3.344-1.062-6.719-2.062-10.141-2.969V7.677   c-3.468-0.922-6.952-1.75-10.437-2.516C334.204,10.771,337.563,16.458,343.157,17.958z"/>
	<path fill="#D94452" d="M426.608,170.673h45.812c-2.109-7.296-4.625-14.406-7.547-21.328h-38.265V106.69h13.297   c-10.016-12.969-21.672-24.609-34.641-34.64v13.296h-42.655V47.082c-6.906-2.922-14.031-5.438-21.327-7.547v45.827l-42.672-0.016   V32.332c-3.531-0.203-7.078-0.312-10.656-0.312s-7.141,0.109-10.672,0.312v53.015h-42.655V39.535   c-7.297,2.109-14.422,4.625-21.343,7.547v38.265h-42.656V72.05c-12.968,10.031-24.609,21.671-34.64,34.64h13.312v42.655h-38.265   c-2.922,6.906-5.453,14.031-7.547,21.328h45.812v42.671h-53.03c-0.188,3.531-0.297,7.078-0.297,10.656s0.094,7.14,0.297,10.671   h53.03v57.796c7.062-3,14.203-6,21.328-9v-48.796h42.656v30.906c7.421-3.109,14.578-6.078,21.343-8.891v-22.016h42.655v42.656   h-22.124c-2.812,6.765-5.781,13.905-8.891,21.327h31.015v42.671h-48.874c-3,7.109-6,14.234-8.984,21.328h57.858v53.03   c3.531,0.188,7.094,0.297,10.672,0.297s7.125-0.109,10.656-0.297v-53.03h42.672v45.812c7.296-2.094,14.421-4.625,21.327-7.547   v-38.265h42.655v13.312c12.969-10.031,24.609-21.688,34.641-34.641h-13.297v-42.671h38.265c2.922-6.906,5.438-14.031,7.547-21.327   h-45.812v-42.656h53.014c0.203-3.531,0.312-7.093,0.312-10.671s-0.109-7.125-0.312-10.656h-53.014V170.673z M213.284,213.345   h-42.656v-42.671h42.656V213.345z M213.284,149.346h-42.656V106.69h42.656V149.346z M277.282,213.345h-42.655v-42.671h42.655   V213.345z M277.282,149.346h-42.655V106.69h42.655V149.346z M341.282,341.326H298.61v-42.671h42.672V341.326z M341.282,277.328   H298.61v-42.656h42.672V277.328z M341.282,213.345H298.61v-42.671h42.672V213.345z M341.282,149.346H298.61V106.69h42.672V149.346z    M405.265,341.326h-42.655v-42.671h42.655V341.326z M405.265,277.328h-42.655v-42.656h42.655V277.328z M405.265,213.345h-42.655   v-42.671h42.655V213.345z M405.265,149.346h-42.655V106.69h42.655V149.346z"/>
	<g>
		<path fill="#EC5564" d="M135.129,511.964l-9.859-4.094C70.005,484.98,26.975,441.934,4.085,386.686l-4.078-9.859l230.652-95.545    L135.129,511.964z"/>
	</g>
	<path fill="#D94452" d="M151.379,472.684l28.781-69.452h-7.438v-42.671h25.109l8.828-21.312h-33.937V305.28l-21.343,8.844v25.124   h-42.655v-7.453l-69.468,28.766h48.14v42.671H11.741c3.765,7.375,7.906,14.483,12.421,21.327h63.233v63.234   c6.828,4.516,13.953,8.64,21.328,12.421v-75.655h42.655V472.684z M108.724,403.231v-42.671h42.655v42.671H108.724z"/>
	<g>
		<path fill="#D94452" d="M147.441,482.215l8.172-19.75c-3.719-1.281-7.422-2.688-11.078-4.219    c-20.312-8.594-38.562-20.906-54.249-36.594c-15.671-15.671-27.983-33.92-36.577-54.248c-1.547-3.656-2.953-7.344-4.219-11.062    l-19.734,8.156C49.006,419.434,92.521,462.949,147.441,482.215z"/>
	</g>
	<path fill="#F4BE8E" d="M125.333,507.901c3.281,1.344,6.578,2.625,9.891,3.812l12.218-29.499   c-54.921-19.266-98.436-62.781-117.685-117.717L0.241,376.732c1.203,3.328,2.484,6.656,3.844,9.953   c10.015,24.171,23.89,45.998,40.952,64.842c21.937,24.219,49.155,43.468,80.233,56.343L125.333,507.901z"/>
	<path fill="#D89766" d="M26.178,407.7c-2.891-5.031-9.266-6.797-14.343-4.016c1.625,3.125,3.296,6.219,5.062,9.281c0,0,0,0,0.016,0   c1.781,3.093,3.656,6.155,5.594,9.155C27.428,419.121,29.084,412.716,26.178,407.7z"/>
	<path fill="#D89766" d="M60.084,451.871c-4.109-4.094-10.719-4.156-14.891-0.156c2.359,2.594,4.781,5.156,7.281,7.641l0,0   c2.547,2.547,5.141,5.016,7.781,7.406C64.24,462.59,64.177,455.98,60.084,451.871z"/>
	<path fill="#D89766" d="M104.255,485.777c-5.016-2.906-11.422-1.25-14.422,3.688c2.953,1.906,5.953,3.733,9.016,5.499l0,0   c3.109,1.812,6.266,3.5,9.438,5.156C111.052,495.042,109.286,488.684,104.255,485.777z"/>
</g>
</svg>