<?xml version="1.0" encoding="utf-8"?>
<!-- Uploaded to: SVG Repo, www.svgrepo.com, Generator: SVG Repo Mixer Tools -->
<!DOCTYPE svg PUBLIC "-//W3C//DTD SVG 1.1//EN" "http://www.w3.org/Graphics/SVG/1.1/DTD/svg11.dtd">
<svg xmlns="http://www.w3.org/2000/svg" xmlns:xlink="http://www.w3.org/1999/xlink" version="1.1" id="Layer_1"  width="512" height="512" viewBox="0 0 512 512" enable-background="new 0 0 512 512" xml:space="preserve">
<g id="sandwich">
	<rect x="0.005" y="341.338" fill="#F4BE8E" width="511.99" height="42.656"/>
	<rect x="0.005" y="213.333" fill="#F4BE8E" width="511.99" height="42.655"/>
	<g>
		<path fill="#965353" d="M479.995,277.34H32.004c-5.906,0-10.672-4.781-10.672-10.68c0-5.891,4.766-10.656,10.672-10.656h447.991    c5.891,0,10.656,4.766,10.656,10.656C490.651,272.559,485.886,277.34,479.995,277.34z"/>
	</g>
	<g>
		<path fill="#FB6D51" d="M479.995,341.338H32.004c-5.906,0-10.672-4.781-10.672-10.656c0-5.906,4.766-10.688,10.672-10.688h447.991    c5.891,0,10.656,4.781,10.656,10.688C490.651,336.557,485.886,341.338,479.995,341.338z"/>
	</g>
	<g>
		<path fill="#A0D468" d="M31.989,319.994c-4.453,0-8.625-2.812-10.109-7.28c-1.859-5.594,1.156-11.625,6.75-13.5l63.999-21.343    c2.188-0.719,4.547-0.719,6.734,0l60.64,20.218l60.624-20.218c2.188-0.719,4.547-0.719,6.734,0l60.639,20.218l60.624-20.218    c2.188-0.719,4.547-0.719,6.734,0l60.64,20.218l60.623-20.218c5.578-1.844,11.625,1.156,13.484,6.749    c1.859,5.594-1.156,11.625-6.75,13.5l-63.998,21.344c-2.188,0.718-4.547,0.718-6.734,0l-60.624-20.219l-60.64,20.219    c-2.188,0.718-4.547,0.718-6.734,0L224,299.245l-60.639,20.219c-2.188,0.718-4.547,0.718-6.734,0l-60.624-20.219l-60.639,20.219    C34.254,319.839,33.114,319.994,31.989,319.994z"/>
	</g>
	<polygon fill="#EAAD7A" points="256,128.006 0.005,213.333 511.995,213.333  "/>
</g>
</svg>